HIERARCHY
ROOT Hips
{
	OFFSET 0.00000 0.00000 0.00000
	CHANNELS 6 Xposition Yposition Zposition Zrotation Yrotation Xrotation 
	JOINT LHipJoint
	{
		OFFSET 0 0 0
		CHANNELS 3 Zrotation Yrotation Xrotation
		JOINT LeftUpLeg
		{
			OFFSET 1.66553 -1.82942 0.76350
			CHANNELS 3 Zrotation Yrotation Xrotation
			JOINT LeftLeg
			{
				OFFSET 2.41740 -6.64177 0.00000
				CHANNELS 3 Zrotation Yrotation Xrotation
				JOINT LeftFoot
				{
					OFFSET 2.71614 -7.46254 0.00000
					CHANNELS 3 Zrotation Yrotation Xrotation
					JOINT LeftToeBase
					{
						OFFSET 0.08005 -0.21993 1.82495
						CHANNELS 3 Zrotation Yrotation Xrotation
						End Site
						{
							OFFSET 0.00000 -0.00000 0.93441
						}
					}
				}
			}
		}
	}
	JOINT RHipJoint
	{
		OFFSET 0 0 0
		CHANNELS 3 Zrotation Yrotation Xrotation
		JOINT RightUpLeg
		{
			OFFSET -1.63725 -1.82942 0.76350
			CHANNELS 3 Zrotation Yrotation Xrotation
			JOINT RightLeg
			{
				OFFSET -2.40538 -6.60872 0.00000
				CHANNELS 3 Zrotation Yrotation Xrotation
				JOINT RightFoot
				{
					OFFSET -2.73312 -7.50919 0.00000
					CHANNELS 3 Zrotation Yrotation Xrotation
					JOINT RightToeBase
					{
						OFFSET -0.15567 -0.42769 1.93504
						CHANNELS 3 Zrotation Yrotation Xrotation
						End Site
						{
							OFFSET -0.00000 -0.00000 1.00100
						}
					}
				}
			}
		}
	}
	JOINT LowerBack
	{
		OFFSET 0 0 0
		CHANNELS 3 Zrotation Yrotation Xrotation
		JOINT Spine
		{
			OFFSET 0.00326 2.30118 -0.13017
			CHANNELS 3 Zrotation Yrotation Xrotation
			JOINT Spine1
			{
				OFFSET 0.02887 2.30677 0.00834
				CHANNELS 3 Zrotation Yrotation Xrotation
				JOINT Neck
				{
					OFFSET 0 0 0
					CHANNELS 3 Zrotation Yrotation Xrotation
					JOINT Neck1
					{
						OFFSET 0.12946 1.68326 0.00713
						CHANNELS 3 Zrotation Yrotation Xrotation
						JOINT Head
						{
							OFFSET -0.24364 1.67243 -0.16079
							CHANNELS 3 Zrotation Yrotation Xrotation
							End Site
							{
								OFFSET -0.09229 1.70819 -0.06383
							}
						}
					}
				}
				JOINT LeftShoulder
				{
					OFFSET 0 0 0
					CHANNELS 3 Zrotation Yrotation Xrotation
					JOINT LeftArm
					{
						OFFSET 3.28104 0.69567 -0.00556
						CHANNELS 3 Zrotation Yrotation Xrotation
						JOINT LeftForeArm
						{
							OFFSET 5.70706 -0.00000 -0.00000
							CHANNELS 3 Zrotation Yrotation Xrotation
							JOINT LeftHand
							{
								OFFSET 3.33243 -0.00000 0.00000
								CHANNELS 3 Zrotation Yrotation Xrotation
								JOINT LeftFingerBase
								{
									OFFSET 0 0 0
									CHANNELS 3 Zrotation Yrotation Xrotation
									JOINT LeftHandIndex1
									{
										OFFSET 0.79269 -0.00000 0.00000
										CHANNELS 3 Zrotation Yrotation Xrotation
										End Site
										{
											OFFSET 0.63909 -0.00000 0.00000
										}
									}
								}
								JOINT LThumb
								{
									OFFSET 0 0 0
									CHANNELS 3 Zrotation Yrotation Xrotation
									End Site
									{
										OFFSET 0.64884 -0.00000 0.64884
									}
								}
							}
						}
					}
				}
				JOINT RightShoulder
				{
					OFFSET 0 0 0
					CHANNELS 3 Zrotation Yrotation Xrotation
					JOINT RightArm
					{
						OFFSET -3.40955 0.64424 0.14010
						CHANNELS 3 Zrotation Yrotation Xrotation
						JOINT RightForeArm
						{
							OFFSET -5.88176 -0.00000 -0.00000
							CHANNELS 3 Zrotation Yrotation Xrotation
							JOINT RightHand
							{
								OFFSET -3.28156 -0.00000 0.00000
								CHANNELS 3 Zrotation Yrotation Xrotation
								JOINT RightFingerBase
								{
									OFFSET 0 0 0
									CHANNELS 3 Zrotation Yrotation Xrotation
									JOINT RightHandIndex1
									{
										OFFSET -0.86313 -0.00000 0.00000
										CHANNELS 3 Zrotation Yrotation Xrotation
										End Site
										{
											OFFSET -0.69587 -0.00000 0.00000
										}
									}
								}
								JOINT RThumb
								{
									OFFSET 0 0 0
									CHANNELS 3 Zrotation Yrotation Xrotation
									End Site
									{
										OFFSET -0.70650 -0.00000 0.70650
									}
								}
							}
						}
					}
				}
			}
		}
	}
}
MOTION
Frames: 15
Frame Time: .0083333
7.4197 14.3061 -20.8013 3.9258 -24.4990 25.9289 0.0000 0.0000 0.0000 13.1859 2.1750 -37.8286 5.0471 13.4367 41.0260 1.7785 -0.3116 -25.1476 5.4288 -13.8510 -42.6438 0.0000 0.0000 0.0000 -19.2402 17.4688 -83.6407 -15.1696 -19.4311 75.7470 -1.6778 13.4925 -23.6870 -1.9911 8.8475 -25.3195 -3.1689 -0.9106 30.5301 6.7776 -1.9659 13.1508 9.4228 -1.5047 -1.3616 18.2957 5.8463 4.6736 -30.8382 6.3770 -12.9475 -13.7443 4.0667 -2.5522 0.0000 -0.0000 0.0000 -32.0319 -33.7944 52.9322 16.4323 -26.1033 -3.8342 -0.0000 -0.0000 11.1763 -5.6498 26.9231 -2.5648 -7.1250 0.0000 -0.0000 -36.4727 52.9854 -8.0168 0.0000 -0.0000 0.0000 -49.9729 54.8248 -26.0497 -81.1916 59.7048 -52.3792 0.0000 -0.0000 -35.6887 -18.2031 14.8842 -4.8282 7.1250 -0.0000 -0.0000 6.3283 -14.4161 4.5821
7.4459 14.2796 -20.8088 3.8899 -24.5108 25.7982 0.0000 0.0000 0.0000 13.2506 2.2201 -38.0823 5.2066 13.6128 41.7080 1.8279 -0.5000 -25.4397 5.3962 -13.8166 -42.5075 0.0000 0.0000 0.0000 -19.4492 17.5610 -83.6888 -15.2343 -19.4465 75.9415 -1.6865 13.4400 -23.7347 -2.0265 8.9211 -25.5489 -3.7660 -0.6455 30.8077 6.9518 -1.7842 13.0917 9.9006 -1.4396 -1.5522 18.5952 5.8052 4.9227 -30.9174 6.3415 -13.1428 -13.8669 4.0624 -2.6440 -0.0000 0.0000 0.0000 -32.5519 -35.1504 49.3906 15.1233 -24.3176 -3.2766 -0.0000 -0.0000 14.3472 -1.8065 22.5497 -0.6930 -7.1250 0.0000 -0.0000 -30.1286 49.9349 -3.9869 -0.0000 0.0000 0.0000 -49.1762 54.3466 -24.1429 -85.9815 59.9389 -56.5206 0.0000 -0.0000 -36.1010 -17.9255 15.3579 -4.8968 7.1250 -0.0000 -0.0000 6.5300 -13.9530 4.7947
7.4715 14.2606 -20.8205 3.6379 -24.3247 25.6627 0.0000 0.0000 0.0000 13.6056 2.2567 -38.3242 5.3769 13.7960 42.4265 1.8714 -0.9140 -25.6205 5.3396 -13.7563 -42.2700 0.0000 0.0000 0.0000 -19.3669 17.7483 -83.5035 -15.2828 -19.4579 76.0872 -1.7214 13.1154 -23.9069 -2.1208 9.1134 -26.1507 -4.1524 -0.4216 31.2286 7.2208 -1.6005 13.0779 10.3669 -1.3708 -1.7586 18.9882 5.8218 5.0174 -31.1686 6.3866 -13.2258 -14.0616 4.0896 -2.6389 -0.0000 0.0000 0.0000 -32.8677 -36.6169 45.1525 13.9352 -22.6420 -2.8031 -0.0000 -0.0000 17.6663 3.1023 22.5395 1.1902 -7.1250 0.0000 -0.0000 -25.6769 50.6884 -3.8168 -0.0000 0.0000 0.0000 -48.0367 53.8840 -22.1302 -91.0565 59.9958 -60.9150 0.0000 -0.0000 -36.3833 -17.7845 15.7777 -4.9846 7.1250 -0.0000 -0.0000 6.6380 -13.5329 4.9343
7.5028 14.2377 -20.8344 3.1972 -24.0421 25.7453 0.0000 0.0000 0.0000 14.2232 2.2470 -38.7554 5.5622 13.9902 43.1983 1.9160 -1.4711 -25.7740 5.2589 -13.6696 -41.9297 0.0000 0.0000 0.0000 -19.1276 17.8818 -83.4281 -15.3113 -19.4645 76.1725 -1.7441 13.0033 -24.0363 -2.1134 9.0984 -26.1037 -4.2983 -0.2502 31.4516 7.5060 -1.4177 13.1098 10.7125 -1.2990 -1.8468 19.1300 5.8650 4.9625 -31.1654 6.4339 -13.3716 -14.0917 4.1075 -2.6480 0.0000 -0.0000 0.0000 -32.8465 -38.1506 39.8274 13.0090 -21.3005 -2.4566 -0.0000 -0.0000 20.8101 6.6988 21.6512 2.4813 -7.1250 0.0000 -0.0000 -21.8853 50.4407 -3.0623 0.0000 -0.0000 0.0000 -46.6310 53.2502 -20.0724 -96.2157 59.8535 -65.3803 0.0000 -0.0000 -36.4336 -17.4520 16.0306 -4.9618 7.1250 -0.0000 -0.0000 6.8689 -13.3060 5.1415
7.5535 14.2040 -20.8487 2.8272 -23.9516 26.0293 0.0000 0.0000 0.0000 14.7160 2.1491 -39.4691 5.7783 14.2100 44.0854 1.9282 -1.4821 -25.8553 5.3312 -13.7473 -42.2345 0.0000 0.0000 0.0000 -19.0945 17.8297 -83.7563 -15.3242 -19.4675 76.2114 -1.7401 13.1143 -24.0276 -2.2666 9.4007 -27.0570 -4.4617 -0.0731 31.4729 7.7116 -1.2298 13.0718 10.9768 -1.2169 -1.9348 19.1356 5.8124 4.8776 -31.0030 6.3522 -13.4137 -14.0269 4.0512 -2.6757 0.0000 -0.0000 0.0000 -32.4338 -39.5414 34.3216 12.4687 -20.5037 -2.2638 -0.0000 -0.0000 22.7034 9.6599 20.7766 3.4553 -7.1250 0.0000 -0.0000 -18.7050 50.0775 -2.4155 0.0000 -0.0000 0.0000 -45.3358 52.4552 -18.0051 -101.0215 59.5360 -69.5300 0.0000 -0.0000 -36.4321 -16.9334 16.2978 -4.8835 7.1250 -0.0000 -0.0000 7.2238 -13.0843 5.4453
7.5965 14.1748 -20.8617 2.7425 -23.8406 26.1048 0.0000 0.0000 0.0000 14.9391 1.9016 -40.1117 5.9991 14.4274 44.9779 1.9318 -1.0341 -26.0043 5.5963 -14.0254 -43.3392 0.0000 0.0000 0.0000 -19.2572 17.6985 -83.9814 -15.3588 -19.4755 76.3150 -1.7506 12.9712 -24.0736 -2.5286 9.8898 -28.6205 -4.8772 0.1321 31.5930 7.8803 -1.0786 13.0563 11.3544 -1.1608 -2.0262 19.3509 5.7182 4.6714 -31.0386 6.2177 -13.3305 -14.0786 3.9558 -2.6397 0.0000 0.0000 0.0000 -32.1574 -41.2654 28.2800 11.8595 -19.5936 -2.0549 -0.0000 -0.0000 24.0873 12.6534 19.9853 4.3878 -7.1250 0.0000 -0.0000 -15.5505 49.7739 -1.8704 0.0000 0.0000 0.0000 -44.4119 51.7219 -16.2276 -105.0434 59.1274 -72.9898 0.0000 -0.0000 -36.5027 -16.1113 16.7839 -4.7679 7.1250 -0.0000 -0.0000 7.7849 -12.6699 5.9442
7.6410 14.1462 -20.8753 2.6148 -23.6719 26.2139 0.0000 0.0000 0.0000 15.2317 1.6465 -40.7590 6.2227 14.6408 45.8692 1.9764 -0.8735 -26.3550 5.7171 -14.1485 -43.8356 0.0000 0.0000 0.0000 -19.3935 17.5883 -84.1803 -15.3935 -19.4834 76.4191 -1.7856 12.5313 -24.2359 -2.6743 10.1481 -29.4577 -5.1089 0.3046 31.6100 7.9353 -0.9268 13.1186 11.4989 -1.1010 -1.9961 19.7910 5.6730 4.4742 -31.1028 6.1489 -13.4207 -14.1961 3.8914 -2.6225 -0.0000 0.0000 0.0000 -31.8635 -43.3739 21.3660 11.1921 -18.5821 -1.8367 -0.0000 -0.0000 25.7902 16.4003 19.7608 5.6827 -7.1250 0.0000 -0.0000 -11.8954 50.1324 -1.5238 -0.0000 0.0000 0.0000 -41.8092 50.2828 -13.3695 -110.8467 58.2925 -77.9503 0.0000 -0.0000 -36.6175 -15.4748 17.1691 -4.6721 7.1250 -0.0000 -0.0000 8.2166 -12.3413 6.3376
7.6814 14.1217 -20.8855 2.3317 -23.4933 26.2829 0.0000 0.0000 0.0000 15.6544 1.4964 -41.2297 6.4277 14.8303 46.6748 2.0679 -1.7618 -26.7265 5.3289 -13.7448 -42.2248 0.0000 0.0000 0.0000 -19.3714 17.6473 -84.2139 -15.4224 -19.4900 76.5058 -1.8025 12.3367 -24.3199 -2.6171 10.0478 -29.1317 -5.1770 0.4782 31.6892 7.9572 -0.7364 13.2165 11.5021 -1.0179 -1.9624 20.2418 5.6268 4.2700 -31.0929 6.0917 -13.4711 -14.2811 3.8269 -2.5944 0.0000 -0.0000 0.0000 -31.3385 -45.5260 14.1831 10.7534 -17.9093 -1.6993 -0.0000 -0.0000 27.6284 20.0973 20.0308 7.1435 -7.1250 0.0000 -0.0000 -8.3958 51.0077 -1.2502 0.0000 -0.0000 0.0000 -41.2526 49.8932 -12.2178 -113.2008 57.8651 -79.9485 0.0000 -0.0000 -37.1497 -15.3161 17.3737 -4.6752 7.1250 -0.0000 -0.0000 8.3264 -12.1492 6.4578
7.7192 14.1033 -20.8944 2.1746 -23.3144 26.2779 0.0000 0.0000 0.0000 15.9177 1.3412 -41.6646 6.6213 15.0046 47.4272 2.1629 -2.5086 -27.1687 5.0136 -13.3991 -40.8813 0.0000 0.0000 0.0000 -19.4709 17.6989 -84.1771 -15.4434 -19.4947 76.5687 -1.7902 12.3327 -24.2399 -2.4343 9.7174 -28.0663 -5.3813 0.6711 31.8698 7.9856 -0.5578 13.2655 11.5942 -0.9397 -2.0169 20.6300 5.5466 4.1342 -31.0976 5.9872 -13.5043 -14.3660 3.7459 -2.5907 0.0000 0.0000 0.0000 -30.7330 -47.6244 7.6259 10.5788 -17.6397 -1.6460 -0.0000 -0.0000 27.9467 22.5005 19.5215 7.8807 -7.1250 0.0000 -0.0000 -5.8710 50.8822 -0.8534 0.0000 0.0000 0.0000 -38.7856 48.6012 -9.5174 -117.7743 56.8744 -83.8009 0.0000 -0.0000 -37.1523 -14.9891 17.4261 -4.5844 7.1250 -0.0000 -0.0000 8.5434 -12.1290 6.6335
7.7580 14.0817 -20.9086 1.9728 -23.0866 26.3322 0.0000 0.0000 0.0000 16.2680 1.1474 -42.1628 6.8121 15.1716 48.1599 2.1663 -1.2436 -27.5112 5.7067 -14.1379 -43.7928 0.0000 0.0000 0.0000 -19.5930 17.8073 -84.1703 -15.4500 -19.4962 76.5885 -1.8054 12.0280 -24.3009 -2.4347 9.7182 -28.0688 -5.5378 0.8672 31.9769 8.0003 -0.3645 13.3727 11.6374 -0.8585 -1.9842 20.9550 5.4546 4.0125 -30.9924 5.8524 -13.6385 -14.3994 3.6503 -2.6358 -0.0000 0.0000 0.0000 -29.7311 -49.5407 3.2367 10.7273 -17.8690 -1.6913 -0.0000 -0.0000 24.7316 24.8328 18.9551 8.5485 -7.1250 0.0000 -0.0000 -3.4081 50.6777 -0.4773 -0.0000 0.0000 0.0000 -36.9816 48.2221 -7.4016 -120.2334 56.2474 -85.8531 0.0000 -0.0000 -36.7528 -14.4919 17.3527 -4.4081 7.1250 -0.0000 -0.0000 8.8699 -12.2528 6.8703
7.7994 14.0557 -20.9285 1.7637 -22.8282 26.3954 0.0000 0.0000 0.0000 16.6986 0.8368 -42.6894 7.0055 15.3365 48.8950 2.1438 -0.2918 -27.6447 6.1862 -14.6063 -45.7243 0.0000 0.0000 0.0000 -19.6595 17.8343 -84.2009 -15.4532 -19.4970 76.5983 -1.8339 11.7099 -24.4497 -2.5836 9.9884 -28.9392 -5.7197 1.0632 32.1565 8.0729 -0.1754 13.4443 11.7613 -0.7783 -2.0192 21.1536 5.3692 3.7611 -30.8167 5.7306 -13.5852 -14.3570 3.5499 -2.6116 -0.0000 0.0000 0.0000 -29.2753 -51.6066 -0.7297 10.9306 -18.1818 -1.7542 -0.0000 -0.0000 21.4278 28.4868 19.8454 10.4382 -7.1250 0.0000 -0.0000 0.1015 52.3044 0.0182 -0.0000 0.0000 0.0000 -35.0660 47.0608 -5.1974 -123.6255 55.2638 -88.6575 0.0000 -0.0000 -36.8952 -14.4380 17.3758 -4.3967 7.1250 -0.0000 -0.0000 8.9060 -12.2346 6.9024
7.8434 14.0306 -20.9443 1.6786 -22.6496 26.5069 0.0000 0.0000 0.0000 16.9497 0.5482 -43.2829 7.2072 15.5039 49.6535 2.1465 0.0345 -27.7661 6.3508 -14.7599 -46.3738 0.0000 0.0000 0.0000 -19.8518 17.7180 -84.3689 -15.4640 -19.4994 76.6304 -1.8384 11.5424 -24.4619 -2.6268 10.0648 -29.1869 -6.1088 1.2901 32.4329 8.2049 0.0053 13.3404 12.0729 -0.6917 -2.2819 21.2516 5.3249 3.6069 -30.7141 5.6804 -13.4604 -14.3213 3.5002 -2.5655 -0.0000 -0.0000 0.0000 -27.8229 -52.8337 -2.1862 11.6636 -19.2983 -1.9897 -0.0000 -0.0000 14.4215 31.9931 21.2551 12.7604 -7.1250 0.0000 -0.0000 3.5644 54.5830 0.8400 -0.0000 -0.0000 0.0000 -33.1943 46.0933 -2.6847 -126.5448 54.2974 -91.0426 0.0000 -0.0000 -36.9903 -14.2473 17.4241 -4.3480 7.1250 -0.0000 -0.0000 9.0325 -12.2043 7.0087
7.8883 14.0087 -20.9519 1.4647 -22.5652 26.6918 0.0000 0.0000 0.0000 17.2228 0.4594 -43.8263 7.4100 15.6676 50.4084 2.1009 0.9931 -27.7953 6.7349 -15.1046 -47.8645 0.0000 0.0000 0.0000 -19.9948 17.7254 -84.5648 -15.4654 -19.4997 76.6345 -1.8305 11.3501 -24.3915 -2.7059 10.2029 -29.6365 -6.3376 1.5299 32.5687 8.2377 0.2359 13.3326 12.1638 -0.5825 -2.3969 21.2624 5.2781 3.5404 -30.4402 5.6063 -13.5858 -14.2151 3.4459 -2.6243 0.0000 -0.0000 0.0000 -26.8309 -54.4330 -4.3046 12.4026 -20.4057 -2.2407 -0.0000 -0.0000 8.3761 32.9058 21.2937 13.2237 -7.1250 0.0000 -0.0000 4.5587 54.8246 1.1018 0.0000 -0.0000 0.0000 -31.3566 45.1322 -0.4423 -128.8724 53.4403 -92.9227 0.0000 -0.0000 -37.1131 -13.5417 17.3107 -4.0991 7.1250 -0.0000 -0.0000 9.4962 -12.3860 7.3422
7.9339 13.9852 -20.9604 1.0798 -22.3986 26.8695 0.0000 0.0000 0.0000 17.7293 0.3586 -44.2901 7.6099 15.8247 51.1452 2.1929 0.4317 -28.1975 6.5763 -14.9644 -47.2529 0.0000 0.0000 0.0000 -19.9757 17.8581 -84.6452 -15.4591 -19.4983 76.6157 -1.8489 10.9391 -24.4762 -2.9085 10.5455 -30.7618 -6.3327 1.7336 32.6779 8.2536 0.4791 13.4340 12.0973 -0.4710 -2.3863 21.0760 5.2197 3.2639 -29.9013 5.5165 -13.5376 -13.9367 3.3615 -2.6239 0.0000 -0.0000 0.0000 -25.3027 -55.8219 -5.4529 13.4249 -21.9066 -2.6097 -0.0000 -0.0000 1.2018 32.0951 21.6999 13.0559 -7.1250 0.0000 -0.0000 3.6027 55.1049 0.8948 0.0000 -0.0000 0.0000 -28.7513 43.6486 2.2063 -131.4573 52.3906 -94.9850 0.0000 -0.0000 -37.1905 -12.8544 17.4659 -3.9180 7.1250 -0.0000 -0.0000 9.9505 -12.2935 7.7239
7.9794 13.9609 -20.9736 0.7622 -22.1796 27.0487 0.0000 0.0000 0.0000 18.2160 0.2012 -44.8085 7.8003 15.9704 51.8400 2.3261 -0.7072 -28.6845 6.2236 -14.6416 -45.8728 0.0000 0.0000 0.0000 -20.0714 17.9931 -84.7315 -15.4373 -19.4934 76.5506 -1.8542 10.7698 -24.4979 -2.9008 10.5326 -30.7194 -6.4484 1.9453 32.8941 8.3570 0.7052 13.4579 12.2024 -0.3655 -2.5012 20.7551 5.1491 3.0479 -29.4271 5.4060 -13.4562 -13.6639 3.2803 -2.6317 0.0000 -0.0000 0.0000 -23.9706 -57.1087 -6.2438 14.6268 -23.6237 -3.0748 -0.0000 0.0000 -5.8486 31.2324 22.8073 13.2277 -7.1250 0.0000 -0.0000 2.4375 56.1505 0.6669 0.0000 -0.0000 0.0000 -26.5226 42.3617 4.6666 -133.2551 51.5952 -96.4016 0.0000 -0.0000 -37.4261 -12.3968 17.8992 -3.8648 7.1250 -0.0000 -0.0000 10.2544 -11.9011 8.0525
